PathFileType	4	(X/Y/Z)	C:\Users\86182\Documents\cortex\Trimmed_M3_H7.trc
DataRate	CameraRate	NumFrames	NumMarkers	Units	OrigDataRate	OrigDataStartFrame	OrigNumFrames
100.00	100.00	       144	2	mm	100.00	1	       901
Frame#	Time	gripper			box			
		X1	Y1	Z1	X2	Y2	Z2	

1	0.000	268.34818	172.46974	192.22749	269.56421	168.67491	56.69635	
2	0.010	268.34610	172.47029	192.22771	269.56448	168.67470	56.69624	
3	0.020	268.34427	172.47075	192.22763	269.56442	168.67448	56.69602	
4	0.030	268.34326	172.47095	192.22734	269.56406	168.67435	56.69576	
5	0.040	268.34344	172.47072	192.22679	269.56357	168.67433	56.69559	
6	0.050	268.34454	172.47011	192.22595	269.56339	168.67447	56.69565	
7	0.060	268.34570	172.46941	192.22502	269.56366	168.67467	56.69595	
8	0.070	268.34616	172.46898	192.22432	269.56445	168.67490	56.69643	
9	0.080	268.34589	172.46890	192.22401	269.56561	168.67509	56.69701	
10	0.090	268.34525	172.46910	192.22406	269.56686	168.67526	56.69760	
11	0.100	268.34476	172.46931	192.22423	269.56787	168.67538	56.69805	
12	0.110	268.34494	172.46933	192.22432	269.56845	168.67545	56.69830	
13	0.120	268.34607	172.46904	192.22432	269.56857	168.67548	56.69837	
14	0.130	268.34805	172.46851	192.22433	269.56845	168.67548	56.69832	
15	0.140	268.35031	172.46805	192.22464	269.56808	168.67546	56.69818	
16	0.150	268.35184	172.46791	192.22531	269.56738	168.67543	56.69793	
17	0.160	268.35229	172.46817	192.22623	269.56628	168.67538	56.69752	
18	0.170	268.35205	172.46863	192.22714	269.56494	168.67535	56.69702	
19	0.180	268.35181	172.46909	192.22791	269.56363	168.67531	56.69654	
20	0.190	268.35175	172.46941	192.22838	269.56268	168.67528	56.69619	
21	0.200	268.35165	172.46960	192.22853	269.56232	168.67528	56.69606	
22	0.210	268.35120	172.46980	192.22850	269.56250	168.67528	56.69611	
23	0.220	268.35025	172.47008	192.22858	269.56293	168.67529	56.69627	
24	0.230	268.34903	172.47047	192.22884	269.56332	168.67529	56.69641	
25	0.240	268.34775	172.47093	192.22923	269.56372	168.67531	56.69656	
26	0.250	268.34653	172.47139	192.22961	269.56430	168.67532	56.69677	
27	0.260	268.34528	172.47176	192.22983	269.56528	168.67534	56.69712	
28	0.270	268.34409	172.47197	192.22975	269.56641	168.67537	56.69753	
29	0.280	268.34308	172.47202	192.22945	269.56726	168.67540	56.69785	
30	0.290	268.34232	172.47197	192.22914	269.56769	168.67540	56.69800	
31	0.300	268.34171	172.47195	192.22893	269.56778	168.67542	56.69803	
32	0.310	268.34113	172.47205	192.22888	269.56778	168.67542	56.69803	
33	0.320	268.34045	172.47234	192.22903	269.56796	168.67542	56.69809	
34	0.330	268.33951	172.47292	192.22952	269.56827	168.67543	56.69821	
35	0.340	268.33832	172.47380	192.23042	269.56845	168.67543	56.69828	
36	0.350	268.33707	172.47484	192.23160	269.56808	168.67543	56.69814	
37	0.360	268.33630	172.47574	192.23276	269.56699	168.67542	56.69775	
38	0.370	268.33636	172.47633	192.23367	269.56534	168.67537	56.69717	
39	0.380	268.33710	172.47662	192.23427	269.56360	168.67532	56.69653	
40	0.390	268.33817	172.47670	192.23459	269.56213	168.67526	56.69599	
41	0.400	268.33936	172.47667	192.23480	269.56122	168.67522	56.69563	
42	0.410	268.34052	172.47653	192.23499	269.56073	168.67516	56.69540	
43	0.420	268.34177	172.47610	192.23492	269.56046	168.67508	56.69524	
44	0.430	268.34314	172.47531	192.23439	269.56021	168.67499	56.69507	
45	0.440	268.34442	172.47437	192.23364	269.55994	168.67490	56.69488	
46	0.450	268.34552	172.47363	192.23315	269.55975	168.67482	56.69474	
47	0.460	268.34653	172.47330	192.23328	269.55991	168.67480	56.69477	
48	0.470	268.34753	172.47328	192.23389	269.56052	168.67485	56.69502	
49	0.480	268.34860	172.47339	192.23462	269.56152	168.67496	56.69547	
50	0.490	268.34955	172.47343	192.23515	269.56293	168.67508	56.69608	
51	0.500	268.35013	172.47343	192.23541	269.56461	168.67522	56.69677	
52	0.510	268.35001	172.47342	192.23544	269.56610	168.67531	56.69738	
53	0.520	268.34918	172.47346	192.23532	269.56693	168.67537	56.69771	
54	0.530	268.34769	172.47360	192.23503	269.56689	168.67537	56.69770	
55	0.540	268.34555	172.47386	192.23457	269.56625	168.67532	56.69744	
56	0.550	268.34286	172.47424	192.23401	269.56543	168.67523	56.69708	
57	0.560	268.33975	172.47476	192.23340	269.56473	168.67513	56.69674	
58	0.570	268.33633	172.47542	192.23282	269.56436	168.67502	56.69651	
59	0.580	268.33301	172.47603	192.23222	269.56427	168.67493	56.69639	
60	0.590	268.33044	172.47641	192.23157	269.56409	168.67487	56.69627	
61	0.600	268.32932	172.47632	192.23077	269.56348	168.67482	56.69602	
62	0.610	268.32974	172.47568	192.22980	269.56235	168.67476	56.69557	
63	0.620	268.33133	172.47475	192.22888	269.56100	168.67459	56.69495	
64	0.630	268.33344	172.47398	192.22855	269.55994	168.67429	56.69429	
65	0.640	268.33548	172.47379	192.22920	269.55954	168.67384	56.69372	
66	0.650	268.33719	172.47420	192.23080	269.55988	168.67326	56.69328	
67	0.660	268.33841	172.47502	192.23288	269.56079	168.67259	56.69295	
68	0.670	268.33917	172.47595	192.23492	269.56186	168.67184	56.69259	
69	0.680	268.33969	172.47678	192.23662	269.56287	168.67111	56.69222	
70	0.690	268.34018	172.47733	192.23785	269.56390	168.67061	56.69211	
71	0.700	268.34055	172.47757	192.23851	269.56519	168.67062	56.69256	
72	0.710	268.34048	172.47758	192.23860	269.56662	168.67116	56.69358	
73	0.720	268.33987	172.47752	192.23831	269.56781	168.67203	56.69481	
74	0.730	268.33878	172.47751	192.23787	269.56830	168.67291	56.69582	
75	0.740	268.33731	172.47760	192.23740	269.56775	168.67366	56.69636	
76	0.750	268.33563	172.47778	192.23691	269.56622	168.67424	56.69640	
77	0.760	268.33411	172.47791	192.23631	269.56409	168.67468	56.69610	
78	0.770	268.33298	172.47775	192.23541	269.56210	168.67500	56.69573	
79	0.780	268.33249	172.47720	192.23407	269.56085	168.67522	56.69552	
80	0.790	268.33273	172.47623	192.23235	269.56052	168.67532	56.69550	
81	0.800	268.33374	172.47495	192.23039	269.56070	168.67532	56.69556	
82	0.810	268.33533	172.47348	192.22844	269.56116	168.67520	56.69559	
83	0.820	268.33713	172.47206	192.22665	269.56174	168.67496	56.69556	
84	0.830	268.33875	172.47081	192.22507	269.56262	168.67459	56.69550	
85	0.840	268.34018	172.46977	192.22369	269.56366	168.67413	56.69543	
86	0.850	268.34177	172.46887	192.22255	269.56464	168.67365	56.69528	
87	0.860	268.34354	172.46819	192.22176	269.56537	168.67323	56.69515	
88	0.870	268.34509	172.46779	192.22144	269.56586	168.67308	56.69517	
89	0.880	268.34592	172.46785	192.22171	269.56592	168.67325	56.69535	
90	0.890	268.34555	172.46852	192.22266	269.56540	168.67363	56.69554	
91	0.900	268.34381	172.46976	192.22418	269.56445	168.67407	56.69563	
92	0.910	268.34109	172.47134	192.22597	269.56351	168.67444	56.69565	
93	0.920	268.33807	172.47287	192.22751	269.56296	168.67465	56.69569	
94	0.930	268.33551	172.47397	192.22847	269.56296	168.67473	56.69575	
95	0.940	268.33398	172.47453	192.22888	269.56311	168.67467	56.69574	
96	0.950	268.33389	172.47459	192.22906	269.56308	168.67450	56.69557	
97	0.960	268.33533	172.47427	192.22923	269.56268	168.67430	56.69525	
98	0.970	268.33820	172.47360	192.22942	269.56192	168.67421	56.69489	
99	0.980	268.34198	172.47260	192.22940	269.56091	168.67426	56.69460	
100	0.990	268.34607	172.47131	192.22897	269.55984	168.67442	56.69440	
101	1.000	268.34979	172.46988	192.22801	269.55899	168.67464	56.69432	
102	1.010	268.35254	172.46841	192.22653	269.55850	168.67485	56.69436	
103	1.020	268.35403	172.46707	192.22462	269.55844	168.67502	56.69450	
104	1.030	268.35406	172.46602	192.22260	269.55853	168.67513	56.69464	
105	1.040	268.35287	172.46536	192.22083	269.55844	168.67517	56.69465	
106	1.050	268.35117	172.46504	192.21951	269.55801	168.67514	56.69447	
107	1.060	268.34979	172.46492	192.21869	269.55768	168.67506	56.69427	
108	1.070	268.34903	172.46490	192.21838	269.55820	168.67494	56.69433	
109	1.080	268.34866	172.46503	192.21849	269.55988	168.67480	56.69476	
110	1.090	268.34857	172.46521	192.21884	269.56238	168.67468	56.69549	
111	1.100	268.34879	172.46535	192.21921	269.56497	168.67459	56.69627	
112	1.110	268.34924	172.46545	192.21959	269.56699	168.67458	56.69693	
113	1.120	268.34982	172.46567	192.22021	269.56815	168.67465	56.69740	
114	1.130	268.35016	172.46619	192.22128	269.56842	168.67479	56.69766	
115	1.140	268.34988	172.46716	192.22290	269.56790	168.67494	56.69765	
116	1.150	268.34866	172.46867	192.22513	269.56671	168.67506	56.69739	
117	1.160	268.34647	172.47066	192.22781	269.56528	168.67513	56.69700	
118	1.170	268.34366	172.47284	192.23062	269.56390	168.67516	56.69659	
119	1.180	268.34082	172.47479	192.23311	269.56268	168.67514	56.69621	
120	1.190	268.33850	172.47620	192.23483	269.56174	168.67511	56.69587	
121	1.200	268.33728	172.47675	192.23552	269.56131	168.67509	56.69570	
122	1.210	268.33759	172.47630	192.23511	269.56174	168.67516	56.69579	
123	1.220	268.33957	172.47485	192.23363	269.56287	168.67531	56.69613	
124	1.230	268.34293	172.47261	192.23120	269.56430	168.67558	56.69655	
125	1.240	268.34686	172.46996	192.22816	269.56543	168.67603	56.69687	
126	1.250	268.35071	172.46741	192.22504	269.56567	168.67662	56.69688	
127	1.260	268.35391	172.46555	192.22250	269.56476	168.67735	56.69656	
128	1.270	268.35568	172.46503	192.22125	269.56274	168.67815	56.69598	
129	1.280	268.35489	172.46655	192.22191	269.55988	168.67879	56.69530	
130	1.290	268.35013	172.47087	192.22498	269.55603	168.67892	56.69457	
131	1.300	268.34042	172.47844	192.23082	269.55029	168.67804	56.69353	
132	1.310	268.32562	172.48926	192.23950	269.54153	168.67540	56.69179	
133	1.320	268.30637	172.50264	192.25073	269.52896	168.67017	56.68895	
134	1.330	268.28397	172.51721	192.26402	269.51215	168.66142	56.68469	
135	1.340	268.26065	172.53094	192.27888	269.49088	168.64816	56.67890	
136	1.350	268.23874	172.54161	192.29506	269.46490	168.62943	56.67168	
137	1.360	268.21970	172.54747	192.31270	269.43427	168.60478	56.66338	
138	1.370	268.20410	172.54773	192.33258	269.40018	168.57481	56.65502	
139	1.380	268.19174	172.54254	192.35609	269.36475	168.54102	56.64861	
140	1.390	268.18173	172.53265	192.38516	269.33017	168.50493	56.64673	
141	1.400	268.17273	172.51913	192.42241	269.29779	168.46793	56.65203	
142	1.410	268.16333	172.50346	192.47157	269.26794	168.43159	56.66714	
143	1.420	268.15332	172.48764	192.53769	269.23981	168.39818	56.69509	
144	1.430	268.14386	172.47363	192.62616	269.21179	168.36967	56.73980	
